# xmcd
#
# Track frame offsets:
#	150
#	12316
#	24884
#	36534
#	48797
#	59811
#	71560
#	85516
#	96841
#	110179
#	120423
#	131882
#	144835
#	154786
#	164759
#	177794
#	190409
#	202561
#	215727
#	228302
#	240608
#	252523
#	264478
#	273896
#
# Disc length: 3839 seconds
# Revision: 0
# Processed by: cddbd v1.5.2PL0 Copyright (c) Steve Scherf et al.
# Submitted via: dBpowerAMP V12.0
#
DISCID=560efd18
DTITLE=Various Artist - Blue Beat - The Singles - Vol 2 Disc 1
DYEAR=2013
DGENRE=R&B
TTITLE0=Cecil Byrd And Dir D's Group - Ba Ba Black Sheep
TTITLE1=Lloyd and Cecil And Sir D's Group - Come Over Here
TTITLE2=Theo Beckford and The City Slickers - Georgie And The Old Show
TTITLE3=Theo Beckford and The City Slickers - That's Me
TTITLE4=The Magic Notes and Drumbago And The Jazz Beat - Rosabel
TTITLE5=The Magic Notes and Drumbago And The Jazz Beat - I'm Not Worthy
TTITLE6=Laurel Aitken and The Blue Beats - Nursery Rhyme Boogie
TTITLE7=Laurel Aitkens and The Blue Beats - Bouncing Woman
TTITLE8=Eric 'Humpty Dumpty' Morris and Drumbago All Stars - Humpty Dumpty
TTITLE9=The Drumbago All Stars - Corn Bread And Butter
TTITLE10=Mello-Cat And Count Ossie's Warricker's - Another Moses
TTITLE11=Roland Alphonso and His Alley Cats - Hully Gully Rock
TTITLE12=The Blues Busters - Donna
TTITLE13=The Blues Busters - You're Driving Me Crazy
TTITLE14=Rico Rodriguez And Buster's All Stars - Luke Lane
TTITLE15=Buster's Group - Little Honey
TTITLE16=Derrick Morgan and Patsy And Drumbago's Band - Feel So Fine
TTITLE17=Roland Alphonso - Mean To Me
TTITLE18=Roland Alphonso - Blackberry Brandy
TTITLE19=Alvin and Cecil - Marjorie
TTITLE20=Chuck and Dobby And Duke Reid's Group - Oh Fanny
TTITLE21=Chuck and Dobby And Duke Reid's Group - Running Around
TTITLE22=Clue J and His Blues Blasters - Little Willie
TTITLE23=Clue J and His Blues Blasters - Pine Juice
EXTD=
EXTT0=
EXTT1=
EXTT2=
EXTT3=
EXTT4=
EXTT5=
EXTT6=
EXTT7=
EXTT8=
EXTT9=
EXTT10=
EXTT11=
EXTT12=
EXTT13=
EXTT14=
EXTT15=
EXTT16=
EXTT17=
EXTT18=
EXTT19=
EXTT20=
EXTT21=
EXTT22=
EXTT23=
PLAYORDER=
